<svg width="320" height="240" viewBox="0 0 320 240" fill="none" xmlns="http://www.w3.org/2000/svg">
  <rect x="20" y="32" width="280" height="176" rx="16" fill="#F3F4FF"/>
  <rect x="44" y="56" width="120" height="18" rx="9" fill="#E5E7EB"/>
  <rect x="44" y="84" width="184" height="10" rx="5" fill="#E5E7EB"/>
  <rect x="44" y="102" width="160" height="10" rx="5" fill="#E5E7EB"/>

  <circle cx="128" cy="156" r="34" fill="#FFFFFF"/>
  <circle cx="128" cy="156" r="26" fill="#DBEAFE"/>
  <path d="M115 156H141" stroke="#3B82F6" stroke-width="2.5" stroke-linecap="round"/>
  <path d="M128 143V169" stroke="#3B82F6" stroke-width="2.5" stroke-linecap="round"/>

  <circle cx="202" cy="150" r="22" fill="#FFFFFF" stroke="#9CA3AF" stroke-width="2"/>
  <path d="M215 163L231 179" stroke="#9CA3AF" stroke-width="3" stroke-linecap="round"/>
  <path d="M195 144C197 141 199.5 140 202 140" stroke="#F97373" stroke-width="2" stroke-linecap="round"/>
  <path d="M197 154C199 151 201.5 150 204 150" stroke="#F97373" stroke-width="2" stroke-linecap="round"/>

  <circle cx="64" cy="68" r="3" fill="#F97373"/>
  <circle cx="80" cy="68" r="3" fill="#FBBF24"/>
  <circle cx="96" cy="68" r="3" fill="#34D399"/>
</svg>
